<svg xmlns="http://www.w3.org/2000/svg" width="1200" height="630" viewBox="0 0 1200 630"><defs><linearGradient id="b" x1="0" y1="0" x2="1200" y2="630"><stop stop-color="#102033"/><stop offset="1" stop-color="#174B72"/></linearGradient></defs><rect width="1200" height="630" fill="url(#b)"/><circle cx="1060" cy="100" r="250" fill="#58A6FF" opacity=".08"/><text x="72" y="88" fill="#58A6FF" font-family="Arial" font-size="25" font-weight="700">EXPERIENCE</text><text x="72" y="145" fill="#fff" font-family="Arial" font-size="48" font-weight="800">Toss Commerce QA</text><text x="72" y="190" fill="#B7D0E3" font-family="Arial" font-size="24">User failure → state hypothesis → evidence → regression guard</text><g font-family="Arial" text-anchor="middle"><rect x="55" y="300" width="190" height="110" rx="22" fill="#122B43" stroke="#58A6FF"/><text x="150" y="346" fill="#8B949E" font-size="18">REQUIREMENT</text><text x="150" y="382" fill="#fff" font-size="24" font-weight="700">Expected Flow</text><rect x="330" y="300" width="190" height="110" rx="22" fill="#122B43" stroke="#D2A8FF"/><text x="425" y="346" fill="#8B949E" font-size="18">VARIATION</text><text x="425" y="382" fill="#fff" font-size="24" font-weight="700">Platform / State</text><rect x="605" y="300" width="190" height="110" rx="22" fill="#122B43" stroke="#FFA657"/><text x="700" y="346" fill="#8B949E" font-size="18">EVIDENCE</text><text x="700" y="382" fill="#fff" font-size="24" font-weight="700">Reproduce</text><rect x="880" y="300" width="250" height="110" rx="22" fill="#122B43" stroke="#7EE787"/><text x="1005" y="346" fill="#8B949E" font-size="18">REGRESSION</text><text x="1005" y="382" fill="#fff" font-size="24" font-weight="700">Impact / Release Risk</text></g><g stroke="#8CBFFF" stroke-width="4"><path d="M245 355H330"/><path d="M520 355H605"/><path d="M795 355H880"/></g><text x="72" y="560" fill="#C9D1D9" font-family="Arial" font-size="22">Order · Payment · Coupon · Delivery · Review · Notification · iOS / Android / Web</text></svg>